<?xml version="1.0" encoding="utf-8" standalone="yes"?>
<!DOCTYPE svg PUBLIC "-//W3C//DTD SVG 1.1//EN" "http://www.w3.org/Graphics/SVG/1.1/DTD/svg11.dtd">
<svg xmlns:svg="http://www.w3.org/2000/svg" xmlns="http://www.w3.org/2000/svg" viewBox="0 0 700 840" stroke="rgb(0,0,0)" height="650" version="1.1">
<style type="text/css"><![CDATA[
text {font-family:sans-serif;font-size:10;stroke:none}
g {stroke-linecap:round;stroke-linejoin:round}
#GA {stroke-miterlimit:10}
text,#GB {fill:#000}
#GC {stroke:#f00}
.G0 {stroke-width:9.12660027}
.G2 {stroke:#00f}
.G3 {stroke:lime}
#GC,.G2,.G3,#P0 {stroke-width:26.52669907}
.G4 {stroke-width:7.48979998}
#P0 {fill:none;stroke:#00f}
.P1,.P2,.P3,#GB {stroke:none}
.P1 {fill:lime}
.P2,.G2 {fill:#00f}
.P3 {fill:#f00}
]]></style>
  <g id="GA" transform="matrix(1.61633,0,0,1.61633,-102.1891,-517.9743)">
    <g transform="matrix(.132,0,0,-.132,-124.84,1119.38)">
      <g class="G0">
        <path d="M1394.07,3001.54L 1329.8,3001.54"/>
        <path d="M1754.84,4083.86L 1754.84,4004.36"/>
      </g>
      <g class="G2">
        <path d="M2111.74,3725.88L 2194.56,3669.03"/>
      </g>
      <g class="G3">
        <path d="M1428.51,2861.25L 1439.11,3000.91"/>
      </g>
      <g class="G2">
        <path d="M2025.79,3792.27L 2111.74,3725.88"/>
        <path d="M1940.2,3868.05L 2025.79,3792.27"/>
      </g>
      <g class="G3">
        <path d="M1423.21,2774.27L 1428.51,2861.24"/>
      </g>
      <g class="G2">
        <path d="M1864.17,3946.09L 1940.2,3868.06"/>
      </g>
      <g class="G3">
        <path d="M2269.78,4545.42L 2359.21,4596.03"/>
      </g>
      <g class="G2">
        <path d="M4835.32,2909.98L 4915.56,2897.98"/>
        <path d="M1777.84,4051.68L 1864.16,3946.09"/>
      </g>
      <g class="G3">
        <path d="M1417.91,2669.8L 1423.21,2774.28"/>
      </g>
      <g class="G2">
        <path d="M1693.93,4180.11L 1777.85,4051.68"/>
        <path d="M1651.83,4258.85L 1693.93,4180.12"/>
      </g>
      <g class="G3">
        <path d="M1412.61,2538.94L 1417.91,2669.8"/>
      </g>
      <g class="G2">
        <path d="M4508.25,2961.96L 4584.95,2949.3"/>
        <path d="M1609.73,4351.65L 1651.82,4258.85"/>
        <path d="M4340.61,2990.77L 4424.78,2976.11"/>
      </g>
      <g class="G3">
        <path d="M1940.2,4299.66L 2025.79,4375.44"/>
      </g>
      <g class="G2">
        <path d="M4172.85,3021.28L 4258.31,3005.51"/>
      </g>
      <g class="G3">
        <path d="M1777.84,4116.03L 1864.16,4221.63"/>
      </g>
      <g class="G2">
        <path d="M3842.97,3087.05L 3927.86,3069.32"/>
        <path d="M3679.63,3122.98L 3765.32,3103.82"/>
      </g>
      <g class="G3">
        <path d="M1651.83,3908.87L 1693.93,3987.6"/>
      </g>
      <g class="G2">
        <path d="M3510.06,3163.1L 3599.38,3141.58"/>
        <path d="M1569.03,4460.51L 1609.73,4351.65"/>
      </g>
      <g class="G3">
        <path d="M1407.31,2363.71L 1412.61,2538.93"/>
      </g>
      <g class="G2">
        <path d="M1528.33,4598.34L 1569.03,4460.52"/>
        <path d="M1508.67,4680.72L 1528.33,4598.34"/>
      </g>
      <g class="G3">
        <path d="M1405.4,2280L 1407.31,2363.72"/>
        <path d="M1569.03,3707.2L 1609.73,3816.06"/>
      </g>
      <g class="G2">
        <path d="M3179.24,3251.59L 3261.5,3228.14"/>
        <path d="M1489.02,4778.64L 1508.67,4680.72"/>
        <path d="M3015.58,3301.64L 3103.07,3274.29"/>
      </g>
      <g class="G3">
        <path d="M1508.67,3486.99L 1528.33,3569.38"/>
      </g>
      <g class="G2">
        <path d="M2853.25,3356.54L 2931.34,3329.4"/>
      </g>
      <g class="G3">
        <path d="M1469.36,3268.35L 1489.02,3389.07"/>
      </g>
      <g class="G2">
        <path d="M2523.11,3490.05L 2601.12,3455.28"/>
        <path d="M1469.36,4899.36L 1489.02,4778.64"/>
        <path d="M1449.71,5056.81L 1469.37,4899.36"/>
        <path d="M2359.21,3571.68L 2434.98,3532.35"/>
      </g>
      <g class="G3">
        <path d="M1439.11,3000.9L 1449.71,3110.9"/>
      </g>
      <g class="G2">
        <path d="M2194.57,3669.04L 2269.78,3622.3"/>
        <path d="M1439.11,5166.81L 1449.71,5056.81"/>
        <path d="M1428.51,5306.46L 1439.11,5166.8"/>
        <path d="M1423.21,5393.44L 1428.51,5306.47"/>
        <path d="M1417.91,5497.92L 1423.21,5393.44"/>
        <path d="M1412.61,5628.77L 1417.91,5497.91"/>
        <path d="M1407.31,5804L 1412.61,5628.78"/>
        <path d="M1405.4,5887.71L 1407.31,5803.99"/>
      </g>
      <g class="G3">
        <path d="M4915.56,5269.72L 5001.79,5282.31"/>
        <path d="M4835.32,5257.73L 4915.56,5269.73"/>
        <path d="M4751.49,5244.89L 4835.32,5257.73"/>
        <path d="M4672.86,5232.55L 4751.49,5244.89"/>
        <path d="M4584.95,5218.41L 4672.86,5232.55"/>
        <path d="M4508.25,5205.75L 4584.95,5218.41"/>
        <path d="M4424.78,5191.61L 4508.25,5205.75"/>
        <path d="M4340.61,5176.95L 4424.78,5191.61"/>
        <path d="M4258.3,5162.2L 4340.6,5176.95"/>
        <path d="M4172.85,5146.43L 4258.31,5162.2"/>
        <path d="M4091.22,5130.92L 4172.85,5146.44"/>
        <path d="M4007.73,5114.55L 4091.22,5130.92"/>
        <path d="M3927.86,5098.4L 4007.73,5114.55"/>
        <path d="M3842.97,5080.66L 3927.86,5098.4"/>
        <path d="M3765.32,5063.89L 3842.97,5080.66"/>
        <path d="M3679.63,5044.73L 3765.32,5063.89"/>
        <path d="M3599.38,5026.13L 3679.63,5044.74"/>
        <path d="M3510.06,5004.61L 3599.38,5026.13"/>
        <path d="M3429.62,4984.44L 3510.06,5004.61"/>
        <path d="M3346.48,4962.73L 3429.62,4984.43"/>
        <path d="M3261.5,4939.57L 3346.48,4962.73"/>
        <path d="M3179.24,4916.12L 3261.5,4939.57"/>
        <path d="M3103.07,4893.43L 3179.24,4916.12"/>
        <path d="M3015.58,4866.07L 3103.07,4893.43"/>
        <path d="M2931.35,4838.31L 3015.58,4866.08"/>
        <path d="M2853.25,4811.18L 2931.34,4838.31"/>
        <path d="M2768.21,4779.92L 2853.25,4811.17"/>
        <path d="M2686.71,4748.1L 2768.21,4779.92"/>
        <path d="M2601.12,4712.44L 2686.71,4748.1"/>
        <path d="M2523.11,4677.67L 2601.12,4712.44"/>
        <path d="M2434.98,4635.36L 2523.11,4677.66"/>
        <path d="M2359.21,4596.03L 2434.98,4635.36"/>
      </g>
      <g class="G2">
        <path d="M4915.56,2897.99L 5001.79,2885.4"/>
        <path d="M4751.49,2922.82L 4835.32,2909.98"/>
      </g>
      <g class="G3">
        <path d="M2194.57,4498.68L 2269.78,4545.42"/>
      </g>
      <g class="G2">
        <path d="M4672.86,2935.16L 4751.49,2922.83"/>
        <path d="M4584.95,2949.3L 4672.86,2935.16"/>
      </g>
      <g class="G3">
        <path d="M2111.74,4441.83L 2194.56,4498.68"/>
      </g>
      <g class="G2">
        <path d="M4424.78,2976.11L 4508.25,2961.97"/>
      </g>
      <g class="G3">
        <path d="M2025.79,4375.44L 2111.74,4441.83"/>
      </g>
      <g class="G2">
        <path d="M4258.3,3005.51L 4340.6,2990.76"/>
        <path d="M4091.22,3036.8L 4172.85,3021.28"/>
      </g>
      <g class="G3">
        <path d="M1864.17,4221.63L 1940.2,4299.66"/>
      </g>
      <g class="G2">
        <path d="M4007.73,3053.16L 4091.22,3036.8"/>
        <path d="M3927.86,3069.32L 4007.73,3053.16"/>
        <path d="M3765.32,3103.82L 3842.97,3087.05"/>
      </g>
      <g class="G3">
        <path d="M1693.93,3987.6L 1777.85,4116.03"/>
      </g>
      <g class="G2">
        <path d="M3599.38,3141.58L 3679.63,3122.98"/>
        <path d="M3429.62,3183.27L 3510.06,3163.1"/>
      </g>
      <g class="G3">
        <path d="M1609.73,3816.06L 1651.82,3908.86"/>
      </g>
      <g class="G2">
        <path d="M3346.48,3204.98L 3429.62,3183.27"/>
        <path d="M3261.5,3228.14L 3346.48,3204.98"/>
        <path d="M3103.07,3274.29L 3179.24,3251.59"/>
      </g>
      <g class="G3">
        <path d="M1528.33,3569.38L 1569.03,3707.2"/>
      </g>
      <g class="G2">
        <path d="M2931.35,3329.4L 3015.58,3301.63"/>
        <path d="M2768.21,3387.79L 2853.25,3356.54"/>
      </g>
      <g class="G3">
        <path d="M1489.02,3389.07L 1508.67,3486.99"/>
      </g>
      <g class="G2">
        <path d="M2686.71,3419.61L 2768.21,3387.79"/>
        <path d="M2601.12,3455.27L 2686.71,3419.61"/>
        <path d="M2434.98,3532.35L 2523.11,3490.05"/>
      </g>
      <g class="G3">
        <path d="M1449.71,3110.9L 1469.37,3268.35"/>
      </g>
      <g id="GB">
        <path id="P0" d="M2269.78,3622.3L 2359.21,3571.68"/>
        <path d="M3190.06,3794.23L 3204.56,3815L 3196.81,3815L 3186.43,3799.52L 3176.05,3815L 3168.22,3815L 3182.64,3793.91L 3167.4,3772L 3175.22,3772L 3186.18,3788.56L 3196.97,3772L 3204.96,3772L 3190.06,3794.23z"/>
        <path d="M4970,3947.31L 4970,3906L 4977,3906L 4977,3964L 4972.36,3964C 4969.88,3955.08 4968.28,3953.86 4957.4,3952.46L 4957.4,3947.31L 4970,3947.31z"/>
        <path d="M5017,3964C 5011.59,3964 5006.68,3961.77 5003.65,3958C 4999.88,3952.87 4998,3945.03 4998,3934.21C 4998,3914.48 5004.55,3904 5017,3904C 5029.28,3904 5036,3914.48 5036,3933.71C 5036,3945.1 5034.2,3952.7 5030.35,3957.99C 5027.32,3961.84 5022.49,3963.99 5017,3963.99L 5017,3964z M5017,3958C 5025.03,3958 5029,3950.07 5029,3934.37C 5029,3917.76 5025.11,3910 5016.83,3910C 5008.97,3910 5005,3918.09 5005,3934.12C 5005,3950.14 5008.97,3958 5017,3958z"/>
        <path d="M3567.03,3949C 3565.64,3958.41 3559.46,3964 3550.67,3964C 3544.32,3964 3538.62,3960.89 3535.21,3955.72C 3531.63,3950.06 3530,3942.93 3530,3932.36C 3530,3922.61 3531.45,3916.38 3534.85,3911.21C 3537.92,3906.54 3542.94,3904 3549.24,3904C 3560.15,3904 3568,3912.19 3568,3923.57C 3568,3934.38 3560.65,3942 3550.29,3942C 3544.58,3942 3540.09,3939.95 3537,3936C 3537.08,3950.15 3541.69,3958 3550,3958C 3555.1,3958 3558.64,3954.72 3559.79,3949L 3567.03,3949z M3549.56,3936C 3556.61,3936 3561,3931.02 3561,3923C 3561,3915.49 3556.02,3910 3549.31,3910C 3542.51,3910 3537.37,3915.74 3537.37,3923.42C 3537.37,3930.85 3542.34,3936 3549.56,3936z"/>
        <path d="M2833,3920L 2833,3906L 2840,3906L 2840,3920L 2848.85,3920L 2848.85,3926L 2840,3926L 2840,3964L 2834.68,3964L 2808.32,3927.59L 2808.32,3920L 2833,3920z M2833,3926L 2814.66,3926L 2833,3952.05L 2833,3926z"/>
        <path d="M1167.96,3193L 1156.01,3159.56L 1144.97,3193L 1137.64,3193L 1152.22,3149.16L 1149.58,3142.24C 1148.51,3139.16 1146.94,3137.99 1144.06,3137.99C 1143.07,3137.99 1141.92,3138.42 1140.44,3139.28L 1140.44,3133.07C 1141.84,3132.32 1143.24,3132 1145.05,3132C 1147.28,3132 1149.66,3132.74 1151.48,3134.05C 1153.62,3135.61 1154.86,3137.42 1156.18,3140.87L 1175.38,3193L 1167.96,3193z"/>
        <path d="M4284.21,3936.46C 4290.07,3940.07 4292,3943.02 4292,3948.51C 4292,3957.61 4284.85,3964 4274.5,3964C 4264.23,3964 4257,3957.61 4257,3948.51C 4257,3943.1 4259,3940.15 4265.02,3936.46C 4258.32,3933.26 4255.01,3928.42 4255.01,3922.03C 4255.01,3911.37 4263.04,3904 4274.51,3904C 4285.98,3904 4294.01,3911.38 4294.01,3921.95C 4294.01,3928.42 4290.8,3933.26 4284.22,3936.46L 4284.21,3936.46z M4274.5,3958C 4280.9,3958 4285,3954.45 4285,3948.88C 4285,3943.55 4280.81,3940 4274.5,3940C 4268.19,3940 4264,3943.55 4264,3948.96C 4264,3954.45 4268.18,3958 4274.5,3958z M4274.5,3934C 4281.93,3934 4287,3929.18 4287,3922.04C 4287,3914.82 4281.93,3910 4274.33,3910C 4267.07,3910 4262,3914.9 4262,3922.04C 4262,3929.18 4267.07,3934 4274.5,3934z"/>
        <path d="M1283,5508L 1283,5494L 1290,5494L 1290,5508L 1298.85,5508L 1298.85,5514L 1290,5514L 1290,5552L 1284.68,5552L 1258.32,5515.59L 1258.32,5508L 1283,5508z M1283,5514L 1264.66,5514L 1283,5540.05L 1283,5514z"/>
        <path d="M1297.59,4782L 1266.94,4782C 1267.68,4786.75 1270.31,4789.79 1277.46,4793.97L 1285.67,4798.4C 1293.81,4802.83 1298,4808.81 1298,4815.94C 1298,4820.78 1296.02,4825.29 1292.57,4828.4C 1289.12,4831.52 1284.85,4833 1279.34,4833C 1271.95,4833 1266.45,4830.41 1263.24,4825.57C 1261.19,4822.5 1260.28,4818.95 1260.12,4813.14L 1267.44,4813.14C 1267.69,4817.08 1268.19,4819.45 1269.19,4821.34C 1271.1,4824.87 1274.93,4827 1279.34,4827C 1286,4827 1291,4822.3 1291,4816.05C 1291,4811.44 1288.25,4807.5 1283.02,4804.53L 1275.36,4800.25C 1263.05,4793.34 1259.47,4787.82 1258.81,4774.99L 1297.6,4774.99L 1297.59,4782z"/>
        <path d="M1279,3974C 1273.59,3974 1268.68,3971.77 1265.65,3968C 1261.88,3962.87 1260,3955.03 1260,3944.21C 1260,3924.48 1266.55,3914 1279,3914C 1291.28,3914 1298,3924.48 1298,3943.71C 1298,3955.1 1296.2,3962.7 1292.35,3967.99C 1289.32,3971.84 1284.49,3973.99 1279,3973.99L 1279,3974z M1279,3968C 1287.03,3968 1291,3960.07 1291,3944.37C 1291,3927.76 1287.11,3920 1278.83,3920C 1270.97,3920 1267,3928.09 1267,3944.12C 1267,3960.14 1270.97,3968 1279,3968z"/>
        <path d="M1214.3,3346L 1255.82,3346L 1255.82,3352L 1214.3,3352L 1214.3,3346z"/>
        <path d="M1300.59,3337L 1269.94,3337C 1270.68,3341.75 1273.31,3344.79 1280.46,3348.97L 1288.67,3353.4C 1296.81,3357.83 1301,3363.81 1301,3370.94C 1301,3375.78 1299.02,3380.29 1295.57,3383.4C 1292.12,3386.52 1287.85,3388 1282.34,3388C 1274.95,3388 1269.45,3385.41 1266.24,3380.57C 1264.19,3377.5 1263.28,3373.95 1263.12,3368.14L 1270.44,3368.14C 1270.69,3372.08 1271.19,3374.45 1272.19,3376.34C 1274.1,3379.87 1277.93,3382 1282.34,3382C 1289,3382 1294,3377.3 1294,3371.05C 1294,3366.44 1291.25,3362.5 1286.02,3359.53L 1278.36,3355.25C 1266.05,3348.34 1262.47,3342.82 1261.81,3329.99L 1300.6,3329.99L 1300.59,3337z"/>
        <path d="M1214.3,2627L 1255.82,2627L 1255.82,2633L 1214.3,2633L 1214.3,2627z"/>
        <path d="M1286,2625L 1286,2611L 1293,2611L 1293,2625L 1301.85,2625L 1301.85,2631L 1293,2631L 1293,2669L 1287.68,2669L 1261.32,2632.59L 1261.32,2625L 1286,2625z M1286,2631L 1267.66,2631L 1286,2657.05L 1286,2631z"/>
        <path d="M2128.59,3913L 2097.94,3913C 2098.68,3917.75 2101.31,3920.79 2108.46,3924.97L 2116.67,3929.4C 2124.81,3933.83 2129,3939.81 2129,3946.94C 2129,3951.78 2127.02,3956.29 2123.57,3959.4C 2120.12,3962.52 2115.85,3964 2110.34,3964C 2102.95,3964 2097.45,3961.41 2094.24,3956.57C 2092.19,3953.5 2091.28,3949.95 2091.12,3944.14L 2098.44,3944.14C 2098.69,3948.08 2099.19,3950.45 2100.19,3952.34C 2102.1,3955.87 2105.93,3958 2110.34,3958C 2117,3958 2122,3953.3 2122,3947.05C 2122,3942.44 2119.25,3938.5 2114.02,3935.53L 2106.36,3931.25C 2094.05,3924.34 2090.47,3918.82 2089.81,3905.99L 2128.6,3905.99L 2128.59,3913z"/>
      </g>
      <g class="G0">
        <path d="M3919.47,4083.86L 3919.47,4004.36"/>
      </g>
      <g class="G4">
        <path d="M1394.07,4985.79L 1349.08,4985.79"/>
        <path d="M1394.07,5346.56L 1349.08,5346.56"/>
      </g>
      <g class="G0">
        <path d="M3558.7,4083.86L 3558.7,4004.36"/>
        <path d="M1394.07,5526.95L 1329.8,5526.95"/>
        <path d="M1394.07,4083.86L 1329.8,4083.86"/>
      </g>
      <g class="G4">
        <path d="M3017.54,4083.86L 3017.54,4028.21"/>
      </g>
      <g class="G0">
        <path d="M4641.01,4083.86L 4641.01,4004.36"/>
        <path d="M1394.07,4083.86L 1394.07,4004.36"/>
        <path d="M2837.15,4083.86L 2837.15,4004.36"/>
      </g>
      <g class="G4">
        <path d="M4460.63,4083.86L 4460.63,4028.21"/>
      </g>
      <g class="G0">
        <path d="M4280.24,4083.86L 4280.24,4004.36"/>
      </g>
      <g class="G4">
        <path d="M4099.86,4083.86L 4099.86,4028.21"/>
        <path d="M3739.08,4083.86L 3739.08,4028.21"/>
      </g>
      <g class="G0">
        <path d="M5001.79,4083.86L 5001.79,4004.36"/>
        <path d="M1394.07,5166.17L 1329.8,5166.17"/>
      </g>
      <g class="G4">
        <path d="M1394.07,3181.93L 1349.08,3181.93"/>
      </g>
      <g class="G0">
        <path d="M1394.07,2280L 1329.8,2280"/>
      </g>
      <g class="G4">
        <path d="M3378.31,4083.86L 3378.31,4028.21"/>
      </g>
      <g class="G0">
        <path d="M3197.93,4083.86L 3197.93,4004.36"/>
      </g>
      <g class="G4">
        <path d="M1574.45,4083.86L 1574.45,4028.21"/>
      </g>
      <g class="G0">
        <path d="M1394.07,5887.71L 1329.8,5887.71"/>
      </g>
      <g class="G4">
        <path d="M1394.07,4625.02L 1349.08,4625.02"/>
        <path d="M4821.4,4083.86L 4821.4,4028.21"/>
        <path d="M1394.07,2460.38L 1349.08,2460.38"/>
      </g>
      <g class="G0">
        <path d="M1033.3,4083.86L 5001.79,4083.86"/>
        <path d="M1394.07,3362.31L 1329.8,3362.31"/>
        <path d="M1394.07,4444.63L 1329.8,4444.63"/>
        <path d="M1394.07,2280L 1394.07,5887.72"/>
        <path d="M1394.07,3723.09L 1329.8,3723.09"/>
      </g>
      <g class="G4">
        <path d="M1394.07,3542.7L 1349.08,3542.7"/>
      </g>
      <g class="G0">
        <path d="M1394.07,2640.77L 1329.8,2640.77"/>
      </g>
      <g class="G4">
        <path d="M1394.07,2821.16L 1349.08,2821.16"/>
        <path d="M1394.07,4264.24L 1349.08,4264.24"/>
      </g>
      <g class="G0">
        <path d="M2476.38,4083.86L 2476.38,4004.36"/>
      </g>
      <g class="G4">
        <path d="M2296,4083.86L 2296,4028.21"/>
        <path d="M1394.07,5707.33L 1349.08,5707.33"/>
        <path d="M1213.68,4083.86L 1213.68,4028.21"/>
      </g>
      <g class="G0">
        <path d="M2115.61,4083.86L 2115.61,4004.36"/>
        <path d="M1033.3,4083.86L 1033.3,4004.36"/>
      </g>
      <g class="G4">
        <path d="M1935.22,4083.86L 1935.22,4028.21"/>
        <path d="M2656.77,4083.86L 2656.77,4028.21"/>
      </g>
      <g class="G0">
        <path d="M1394.07,4805.4L 1329.8,4805.4"/>
      </g>
      <g class="G4">
        <path d="M1394.07,3903.47L 1349.08,3903.47"/>
      </g>
      <g id="GC">
        <path d="M4915.56,4905.84L 5001.79,4914.57"/>
        <path d="M4835.32,4897.52L 4915.56,4905.84"/>
        <path d="M4751.49,4888.63L 4835.32,4897.52"/>
        <path d="M4672.86,4880.07L 4751.49,4888.62"/>
        <path d="M4584.95,4870.27L 4672.86,4880.07"/>
        <path d="M4508.25,4861.49L 4584.95,4870.27"/>
        <path d="M4424.78,4851.69L 4508.25,4861.49"/>
        <path d="M4340.61,4841.53L 4424.78,4851.69"/>
        <path d="M4258.3,4831.31L 4340.6,4841.53"/>
        <path d="M4172.85,4820.38L 4258.31,4831.31"/>
        <path d="M4091.22,4809.63L 4172.85,4820.38"/>
        <path d="M4007.73,4798.28L 4091.22,4809.63"/>
        <path d="M3927.86,4787.08L 4007.73,4798.28"/>
        <path d="M3842.97,4774.79L 3927.86,4787.08"/>
        <path d="M3765.32,4763.16L 3842.97,4774.79"/>
        <path d="M3679.63,4749.89L 3765.32,4763.17"/>
        <path d="M3599.38,4736.99L 3679.63,4749.89"/>
        <path d="M3510.06,4722.07L 3599.38,4736.98"/>
        <path d="M3429.62,4708.09L 3510.06,4722.07"/>
        <path d="M3346.48,4693.05L 3429.62,4708.09"/>
        <path d="M3261.5,4676.99L 3346.48,4693.04"/>
        <path d="M3179.24,4660.74L 3261.5,4676.99"/>
        <path d="M3103.07,4645.01L 3179.24,4660.74"/>
        <path d="M3015.58,4626.05L 3103.07,4645.01"/>
        <path d="M2931.35,4606.8L 3015.58,4626.05"/>
        <path d="M2853.25,4588L 2931.34,4606.81"/>
        <path d="M2768.21,4566.33L 2853.25,4587.99"/>
        <path d="M2686.71,4544.27L 2768.21,4566.33"/>
        <path d="M2601.12,4519.56L 2686.71,4544.27"/>
        <path d="M2523.11,4495.45L 2601.12,4519.56"/>
        <path d="M2434.98,4466.13L 2523.11,4495.45"/>
        <path d="M2359.21,4438.87L 2434.98,4466.14"/>
        <path d="M2269.78,4403.79L 2359.21,4438.87"/>
        <path d="M2194.57,4371.39L 2269.78,4403.79"/>
        <path d="M2111.74,4331.98L 2194.56,4371.38"/>
        <path d="M2025.79,4285.96L 2111.74,4331.98"/>
        <path d="M1940.2,4233.44L 2025.79,4285.97"/>
        <path d="M1864.17,4179.35L 1940.2,4233.44"/>
        <path d="M1777.84,4106.16L 1864.16,4179.35"/>
        <path d="M1693.93,4017.14L 1777.85,4106.16"/>
        <path d="M1651.83,3962.56L 1693.93,4017.13"/>
        <path d="M1609.73,3898.23L 1651.82,3962.56"/>
        <path d="M1569.03,3822.78L 1609.73,3898.24"/>
        <path d="M1528.33,3727.25L 1569.03,3822.78"/>
        <path d="M1508.67,3670.14L 1528.33,3727.25"/>
        <path d="M1489.02,3602.27L 1508.67,3670.15"/>
        <path d="M1469.36,3518.59L 1489.02,3602.26"/>
        <path d="M1449.71,3409.46L 1469.37,3518.6"/>
        <path d="M1439.11,3333.21L 1449.71,3409.46"/>
        <path d="M1428.51,3236.41L 1439.11,3333.21"/>
        <path d="M1423.21,3176.12L 1428.51,3236.41"/>
        <path d="M1417.91,3103.7L 1423.21,3176.12"/>
        <path d="M1412.61,3013L 1417.91,3103.7"/>
        <path d="M1407.31,2891.55L 1412.61,3013"/>
        <path d="M1404.66,2810.98L 1407.31,2891.54"/>
        <path d="M1402.01,2707.1L 1404.66,2810.98"/>
        <path d="M1399.36,2560.63L 1402.01,2707.1"/>
        <path d="M1396.71,2310L 1399.36,2560.64"/>
      </g>
    </g>
    <g transform="matrix(.132,0,0,0.132,-124.84,1119.38)">
      <path d="M4609.88,-5483.77L 4620.66,-5483.77L 4620.66,-5392.6L 4609.88,-5392.6L 4609.88,-5483.77" class="P1"/>
      <path d="M4668.59,-5450.67C 4662.81,-5450.67 4658.24,-5448.4 4654.88,-5443.87C 4651.52,-5439.38 4649.84,-5433.21 4649.84,-5425.35C 4649.84,-5417.5 4651.5,-5411.31 4654.82,-5406.78C 4658.18,-5402.29 4662.77,-5400.04 4668.59,-5400.04C 4674.33,-5400.04 4678.88,-5402.31 4682.24,-5406.84C 4685.6,-5411.37 4687.28,-5417.54 4687.28,-5425.35C 4687.28,-5433.13 4685.6,-5439.28 4682.24,-5443.81C 4678.88,-5448.38 4674.33,-5450.67 4668.59,-5450.67 M4668.59,-5459.81C 4677.97,-5459.81 4685.33,-5456.76 4690.68,-5450.67C 4696.03,-5444.57 4698.71,-5436.14 4698.71,-5425.35C 4698.71,-5414.61 4696.03,-5406.17 4690.68,-5400.04C 4685.33,-5393.95 4677.97,-5390.9 4668.59,-5390.9C 4659.18,-5390.9 4651.8,-5393.95 4646.44,-5400.04C 4641.13,-5406.17 4638.48,-5414.61 4638.48,-5425.35C 4638.48,-5436.14 4641.13,-5444.57 4646.44,-5450.67C 4651.8,-5456.76 4659.18,-5459.81 4668.59,-5459.81" class="P1"/>
      <path d="M4759.71,-5426.17C 4759.71,-5433.99 4758.08,-5440.04 4754.84,-5444.34C 4751.64,-5448.64 4747.13,-5450.78 4741.31,-5450.78C 4735.53,-5450.78 4731.01,-5448.64 4727.77,-5444.34C 4724.57,-5440.04 4722.97,-5433.99 4722.97,-5426.17C 4722.97,-5418.4 4724.57,-5412.37 4727.77,-5408.07C 4731.01,-5403.77 4735.53,-5401.62 4741.31,-5401.62C 4747.13,-5401.62 4751.64,-5403.77 4754.84,-5408.07C 4758.08,-5412.37 4759.71,-5418.4 4759.71,-5426.17 M4770.49,-5400.75C 4770.49,-5389.57 4768.01,-5381.27 4763.05,-5375.84C 4758.08,-5370.37 4750.49,-5367.64 4740.25,-5367.64C 4736.46,-5367.64 4732.89,-5367.93 4729.53,-5368.52C 4726.17,-5369.07 4722.91,-5369.92 4719.74,-5371.1L 4719.74,-5381.58C 4722.91,-5379.87 4726.03,-5378.6 4729.12,-5377.78C 4732.21,-5376.96 4735.35,-5376.55 4738.55,-5376.55C 4745.62,-5376.55 4750.92,-5378.4 4754.43,-5382.11C 4757.95,-5385.78 4759.71,-5391.35 4759.71,-5398.81L 4759.71,-5404.14C 4757.48,-5400.28 4754.63,-5397.39 4751.15,-5395.47C 4747.67,-5393.56 4743.51,-5392.6 4738.67,-5392.6C 4730.62,-5392.6 4724.14,-5395.67 4719.22,-5401.8C 4714.3,-5407.93 4711.83,-5416.06 4711.83,-5426.17C 4711.83,-5436.33 4714.3,-5444.48 4719.22,-5450.61C 4724.14,-5456.74 4730.62,-5459.81 4738.67,-5459.81C 4743.51,-5459.81 4747.67,-5458.85 4751.15,-5456.94C 4754.63,-5455.02 4757.48,-5452.13 4759.71,-5448.27L 4759.71,-5458.23L 4770.49,-5458.23L 4770.49,-5400.75" class="P1"/>
      <path d="M4856.8,-5483.66C 4851.56,-5474.67 4847.67,-5465.78 4845.14,-5457C 4842.6,-5448.21 4841.33,-5439.3 4841.33,-5430.28C 4841.33,-5421.25 4842.6,-5412.31 4845.14,-5403.44C 4847.71,-5394.61 4851.6,-5385.73 4856.8,-5376.78L 4847.42,-5376.78C 4841.56,-5385.96 4837.17,-5394.98 4834.24,-5403.85C 4831.35,-5412.72 4829.9,-5421.53 4829.9,-5430.28C 4829.9,-5438.99 4831.35,-5447.76 4834.24,-5456.58C 4837.13,-5465.41 4841.52,-5474.44 4847.42,-5483.66L 4856.8,-5483.66" class="P1"/>
      <path d="M4932.32,-5458.23L 4908.59,-5426.29L 4933.55,-5392.6L 4920.84,-5392.6L 4901.74,-5418.38L 4882.64,-5392.6L 4869.92,-5392.6L 4895.41,-5426.94L 4872.09,-5458.23L 4884.8,-5458.23L 4902.21,-5434.85L 4919.61,-5458.23L 4932.32,-5458.23" class="P1"/>
      <path d="M4947.09,-5483.66L 4956.46,-5483.66C 4962.32,-5474.44 4966.7,-5465.41 4969.59,-5456.58C 4972.52,-5447.76 4973.98,-5438.99 4973.98,-5430.28C 4973.98,-5421.53 4972.52,-5412.72 4969.59,-5403.85C 4966.7,-5394.98 4962.32,-5385.96 4956.46,-5376.78L 4947.09,-5376.78C 4952.28,-5385.73 4956.15,-5394.61 4958.69,-5403.44C 4961.27,-5412.31 4962.56,-5421.25 4962.56,-5430.28C 4962.56,-5439.3 4961.27,-5448.21 4958.69,-5457C 4956.15,-5465.78 4952.28,-5474.67 4947.09,-5483.66" class="P1"/>
      <path d="M4622.9,-3121.55L 4633.68,-3121.55L 4633.68,-3030.38L 4622.9,-3030.38L 4622.9,-3121.55" class="P2"/>
      <path d="M4681.61,-3088.45C 4675.83,-3088.45 4671.26,-3086.18 4667.9,-3081.65C 4664.54,-3077.16 4662.86,-3070.99 4662.86,-3063.13C 4662.86,-3055.28 4664.52,-3049.09 4667.84,-3044.56C 4671.2,-3040.07 4675.79,-3037.82 4681.61,-3037.82C 4687.36,-3037.82 4691.91,-3040.09 4695.27,-3044.62C 4698.63,-3049.15 4700.31,-3055.32 4700.31,-3063.13C 4700.31,-3070.91 4698.63,-3077.06 4695.27,-3081.59C 4691.91,-3086.16 4687.36,-3088.45 4681.61,-3088.45 M4681.61,-3097.59C 4690.99,-3097.59 4698.35,-3094.54 4703.7,-3088.45C 4709.06,-3082.35 4711.73,-3073.92 4711.73,-3063.13C 4711.73,-3052.39 4709.06,-3043.95 4703.7,-3037.82C 4698.35,-3031.73 4690.99,-3028.68 4681.61,-3028.68C 4672.2,-3028.68 4664.82,-3031.73 4659.47,-3037.82C 4654.15,-3043.95 4651.5,-3052.39 4651.5,-3063.13C 4651.5,-3073.92 4654.15,-3082.35 4659.47,-3088.45C 4664.82,-3094.54 4672.2,-3097.59 4681.61,-3097.59" class="P2"/>
      <path d="M4772.73,-3063.95C 4772.73,-3071.77 4771.11,-3077.82 4767.86,-3082.12C 4764.66,-3086.42 4760.15,-3088.56 4754.33,-3088.56C 4748.55,-3088.56 4744.04,-3086.42 4740.79,-3082.12C 4737.59,-3077.82 4735.99,-3071.77 4735.99,-3063.95C 4735.99,-3056.18 4737.59,-3050.15 4740.79,-3045.85C 4744.04,-3041.55 4748.55,-3039.4 4754.33,-3039.4C 4760.15,-3039.4 4764.66,-3041.55 4767.86,-3045.85C 4771.11,-3050.15 4772.73,-3056.18 4772.73,-3063.95 M4783.51,-3038.53C 4783.51,-3027.35 4781.03,-3019.05 4776.07,-3013.62C 4771.11,-3008.15 4763.51,-3005.42 4753.27,-3005.42C 4749.49,-3005.42 4745.91,-3005.71 4742.55,-3006.3C 4739.19,-3006.85 4735.93,-3007.7 4732.77,-3008.88L 4732.77,-3019.36C 4735.93,-3017.65 4739.06,-3016.38 4742.14,-3015.56C 4745.23,-3014.74 4748.37,-3014.33 4751.58,-3014.33C 4758.65,-3014.33 4763.94,-3016.18 4767.45,-3019.89C 4770.97,-3023.56 4772.73,-3029.13 4772.73,-3036.59L 4772.73,-3041.92C 4770.5,-3038.06 4767.65,-3035.17 4764.17,-3033.25C 4760.7,-3031.34 4756.54,-3030.38 4751.69,-3030.38C 4743.65,-3030.38 4737.16,-3033.45 4732.24,-3039.58C 4727.32,-3045.71 4724.86,-3053.84 4724.86,-3063.95C 4724.86,-3074.11 4727.32,-3082.26 4732.24,-3088.39C 4737.16,-3094.52 4743.65,-3097.59 4751.69,-3097.59C 4756.54,-3097.59 4760.7,-3096.63 4764.17,-3094.72C 4767.65,-3092.8 4770.5,-3089.91 4772.73,-3086.04L 4772.73,-3096.01L 4783.51,-3096.01L 4783.51,-3038.53" class="P2"/>
      <path d="M4984.43,-3121.44C 4979.19,-3112.45 4975.31,-3103.56 4972.77,-3094.77C 4970.23,-3085.99 4968.96,-3077.08 4968.96,-3068.06C 4968.96,-3059.03 4970.23,-3050.09 4972.77,-3041.22C 4975.34,-3032.39 4979.23,-3023.51 4984.43,-3014.56L 4975.05,-3014.56C 4969.19,-3023.74 4964.8,-3032.76 4961.87,-3041.63C 4958.98,-3050.5 4957.53,-3059.31 4957.53,-3068.06C 4957.53,-3076.77 4958.98,-3085.54 4961.87,-3094.36C 4964.76,-3103.19 4969.15,-3112.22 4975.05,-3121.44L 4984.43,-3121.44" class="P2"/>
      <path d="M5059.95,-3096.01L 5036.22,-3064.07L 5061.18,-3030.38L 5048.47,-3030.38L 5029.37,-3056.16L 5010.27,-3030.38L 4997.55,-3030.38L 5023.04,-3064.72L 4999.72,-3096.01L 5012.43,-3096.01L 5029.84,-3072.63L 5047.24,-3096.01L 5059.95,-3096.01" class="P2"/>
      <path d="M5074.72,-3121.44L 5084.09,-3121.44C 5089.95,-3112.22 5094.33,-3103.19 5097.22,-3094.36C 5100.15,-3085.54 5101.61,-3076.77 5101.61,-3068.06C 5101.61,-3059.31 5100.15,-3050.5 5097.22,-3041.63C 5094.33,-3032.76 5089.95,-3023.74 5084.09,-3014.56L 5074.72,-3014.56C 5079.92,-3023.51 5083.78,-3032.39 5086.32,-3041.22C 5088.9,-3050.09 5090.19,-3059.03 5090.19,-3068.06C 5090.19,-3077.08 5088.9,-3085.99 5086.32,-3094.77C 5083.78,-3103.56 5079.92,-3112.45 5074.72,-3121.44" class="P2"/>
      <path d="M4637.93,-5075.64L 4648.72,-5075.64L 4648.72,-4984.47L 4637.93,-4984.47L 4637.93,-5075.64" class="P3"/>
      <path d="M4725.77,-5024.08L 4725.77,-4984.47L 4714.99,-4984.47L 4714.99,-5023.73C 4714.99,-5029.94 4713.77,-5034.59 4711.35,-5037.67C 4708.93,-5040.76 4705.3,-5042.3 4700.45,-5042.3C 4694.63,-5042.3 4690.04,-5040.44 4686.68,-5036.73C 4683.33,-5033.02 4681.65,-5027.96 4681.65,-5021.56L 4681.65,-4984.47L 4670.81,-4984.47L 4670.81,-5050.09L 4681.65,-5050.09L 4681.65,-5039.9C 4684.22,-5043.84 4687.25,-5046.79 4690.73,-5048.75C 4694.24,-5050.7 4698.29,-5051.68 4702.86,-5051.68C 4710.4,-5051.68 4716.1,-5049.33 4719.97,-5044.64C 4723.83,-5040 4725.77,-5033.14 4725.77,-5024.08" class="P3"/>
      <path d="M4811.49,-5075.52C 4806.25,-5066.54 4802.37,-5057.65 4799.83,-5048.86C 4797.29,-5040.07 4796.02,-5031.17 4796.02,-5022.14C 4796.02,-5013.12 4797.29,-5004.18 4799.83,-4995.31C 4802.41,-4986.48 4806.29,-4977.59 4811.49,-4968.65L 4802.11,-4968.65C 4796.25,-4977.83 4791.86,-4986.85 4788.93,-4995.72C 4786.04,-5004.59 4784.59,-5013.39 4784.59,-5022.14C 4784.59,-5030.85 4786.04,-5039.62 4788.93,-5048.45C 4791.82,-5057.28 4796.22,-5066.3 4802.11,-5075.52L 4811.49,-5075.52" class="P3"/>
      <path d="M4887.02,-5050.09L 4863.29,-5018.16L 4888.25,-4984.47L 4875.53,-4984.47L 4856.43,-5010.25L 4837.33,-4984.47L 4824.61,-4984.47L 4850.1,-5018.8L 4826.78,-5050.09L 4839.5,-5050.09L 4856.9,-5026.71L 4874.3,-5050.09L 4887.02,-5050.09" class="P3"/>
      <path d="M4901.78,-5075.52L 4911.16,-5075.52C 4917.02,-5066.3 4921.39,-5057.28 4924.28,-5048.45C 4927.21,-5039.62 4928.68,-5030.85 4928.68,-5022.14C 4928.68,-5013.39 4927.21,-5004.59 4924.28,-4995.72C 4921.39,-4986.85 4917.02,-4977.83 4911.16,-4968.65L 4901.78,-4968.65C 4906.98,-4977.59 4910.84,-4986.48 4913.38,-4995.31C 4915.96,-5004.18 4917.25,-5013.12 4917.25,-5022.14C 4917.25,-5031.17 4915.96,-5040.07 4913.38,-5048.86C 4910.84,-5057.65 4906.98,-5066.54 4901.78,-5075.52" class="P3"/>
      <path d="M4827.24,-3052.46C 4823.18,-3052.46 4820.12,-3050.46 4818.06,-3046.45C 4816.03,-3042.46 4815.01,-3036.46 4815.01,-3028.44C 4815.01,-3020.44 4816.03,-3014.44 4818.06,-3010.43C 4820.12,-3006.45 4823.18,-3004.45 4827.24,-3004.45C 4831.33,-3004.45 4834.39,-3006.45 4836.42,-3010.43C 4838.48,-3014.44 4839.5,-3020.44 4839.5,-3028.44C 4839.5,-3036.46 4838.48,-3042.46 4836.42,-3046.45C 4834.39,-3050.46 4831.33,-3052.46 4827.24,-3052.46 M4827.24,-3058.71C 4833.78,-3058.71 4838.76,-3056.12 4842.2,-3050.94C 4845.66,-3045.78 4847.4,-3038.28 4847.4,-3028.44C 4847.4,-3018.62 4845.66,-3011.12 4842.2,-3005.94C 4838.76,-3000.78 4833.78,-2998.2 4827.24,-2998.2C 4820.7,-2998.2 4815.7,-3000.78 4812.24,-3005.94C 4808.8,-3011.12 4807.08,-3018.62 4807.08,-3028.44C 4807.08,-3038.28 4808.8,-3045.78 4812.24,-3050.94C 4815.7,-3056.12 4820.7,-3058.71 4827.24,-3058.71" class="P2"/>
      <path d="M4861.3,-3009.26L 4869.54,-3009.26L 4869.54,-2999.34L 4861.3,-2999.34L 4861.3,-3009.26" class="P2"/>
      <path d="M4886.85,-3057.66L 4917.83,-3057.66L 4917.83,-3051.02L 4894.07,-3051.02L 4894.07,-3036.72C 4895.22,-3037.11 4896.37,-3037.4 4897.51,-3037.58C 4898.66,-3037.79 4899.8,-3037.89 4900.95,-3037.89C 4907.46,-3037.89 4912.62,-3036.11 4916.42,-3032.54C 4920.22,-3028.97 4922.12,-3024.14 4922.12,-3018.05C 4922.12,-3011.77 4920.17,-3006.89 4916.26,-3003.4C 4912.36,-2999.94 4906.85,-2998.2 4899.74,-2998.2C 4897.29,-2998.2 4894.79,-2998.41 4892.24,-2998.83C 4889.71,-2999.25 4887.1,-2999.87 4884.39,-3000.7L 4884.39,-3008.63C 4886.73,-3007.36 4889.15,-3006.41 4891.65,-3005.78C 4894.15,-3005.16 4896.8,-3004.84 4899.58,-3004.84C 4904.09,-3004.84 4907.66,-3006.03 4910.29,-3008.4C 4912.92,-3010.77 4914.23,-3013.98 4914.23,-3018.05C 4914.23,-3022.11 4912.92,-3025.33 4910.29,-3027.7C 4907.66,-3030.07 4904.09,-3031.25 4899.58,-3031.25C 4897.47,-3031.25 4895.36,-3031.02 4893.25,-3030.55C 4891.17,-3030.08 4889.04,-3029.35 4886.85,-3028.36L 4886.85,-3057.66" class="P2"/>
      <path d="M4792.09,-5360.25L 4819.63,-5360.25L 4819.63,-5353.61L 4782.6,-5353.61L 4782.6,-5360.25C 4785.6,-5363.35 4789.67,-5367.5 4794.83,-5372.71C 4800.01,-5377.95 4803.27,-5381.32 4804.59,-5382.83C 4807.12,-5385.67 4808.88,-5388.06 4809.87,-5390.02C 4810.88,-5392 4811.39,-5393.94 4811.39,-5395.84C 4811.39,-5398.94 4810.3,-5401.46 4808.11,-5403.42C 4805.95,-5405.37 4803.12,-5406.34 4799.63,-5406.34C 4797.16,-5406.34 4794.54,-5405.92 4791.78,-5405.06C 4789.05,-5404.2 4786.12,-5402.89 4782.99,-5401.15L 4782.99,-5409.12C 4786.17,-5410.39 4789.14,-5411.36 4791.9,-5412.01C 4794.66,-5412.66 4797.19,-5412.99 4799.48,-5412.99C 4805.52,-5412.99 4810.34,-5411.48 4813.93,-5408.45C 4817.52,-5405.43 4819.32,-5401.4 4819.32,-5396.34C 4819.32,-5393.95 4818.86,-5391.67 4817.95,-5389.51C 4817.07,-5387.37 4815.44,-5384.85 4813.07,-5381.93C 4812.42,-5381.18 4810.35,-5378.99 4806.86,-5375.37C 4803.37,-5371.77 4798.45,-5366.74 4792.09,-5360.25" class="P1"/>
    </g>
  </g>
</svg>
